<?xml version="1.0" encoding="UTF-8" ?>
<!DOCTYPE svg PUBLIC "-//W3C//DTD SVG 1.1//EN" "http://www.w3.org/Graphics/SVG/1.1/DTD/svg11.dtd">
<svg width="128pt" height="128pt" viewBox="0 0 128 128" version="1.1" xmlns="http://www.w3.org/2000/svg">
<g id="#f6a71cff">
<path fill="#f6a71c" opacity="1.00" d=" M 64.34 24.08 C 65.88 23.20 68.19 24.21 68.22 26.09 C 68.49 29.68 68.60 33.33 68.10 36.90 C 67.29 39.19 64.06 38.96 63.16 36.84 C 62.85 33.00 62.81 29.12 63.22 25.29 C 63.50 24.99 64.06 24.38 64.34 24.08 Z" />
<path fill="#f6a71c" opacity="1.00" d=" M 38.20 35.43 C 41.50 36.75 43.76 40.25 46.37 42.70 C 48.74 44.53 46.21 48.66 43.59 47.32 C 40.93 45.38 38.65 42.95 36.47 40.49 C 34.83 38.84 35.54 35.35 38.20 35.43 Z" />
<path fill="#f6a71c" opacity="1.00" d=" M 93.35 35.22 C 95.57 34.45 97.69 36.53 96.87 38.77 C 94.62 41.85 91.87 44.66 88.75 46.87 C 86.56 47.54 84.51 45.62 85.32 43.40 C 87.62 40.35 90.49 37.73 93.35 35.22 Z" />
<path fill="#f6a71c" opacity="1.00" d=" M 59.37 44.41 C 65.78 42.67 72.97 43.62 78.44 47.51 C 87.17 53.24 90.42 65.62 85.91 74.99 C 82.46 82.61 74.41 87.94 66.01 87.87 C 58.57 88.00 51.11 84.20 47.17 77.84 C 43.72 72.71 42.86 66.13 44.23 60.17 C 46.13 52.79 52.08 46.62 59.37 44.41 M 61.37 49.46 C 54.58 51.40 49.23 57.86 49.01 64.99 C 48.36 74.20 56.72 82.92 66.01 82.40 C 75.15 82.62 83.12 74.10 82.41 65.00 C 82.49 54.59 71.21 46.67 61.37 49.46 Z" />
<path fill="#f6a71c" opacity="1.00" d=" M 23.04 66.74 C 23.20 65.04 24.24 63.23 26.12 63.13 C 29.68 62.87 33.27 62.84 36.83 63.14 C 38.85 63.87 38.24 66.34 38.01 67.95 C 33.06 68.31 27.52 69.50 23.04 66.74 Z" />
<path fill="#f6a71c" opacity="1.00" d=" M 94.30 63.24 C 97.84 62.80 101.42 62.91 104.97 63.07 C 107.73 62.81 108.93 67.67 105.88 68.15 C 102.32 68.55 98.70 68.52 95.13 68.21 C 92.50 68.07 92.35 64.40 94.30 63.24 Z" />
<path fill="#f6a71c" opacity="1.00" d=" M 87.36 84.42 C 87.67 84.42 88.30 84.42 88.61 84.42 C 91.60 86.76 94.19 89.59 96.74 92.39 C 98.15 94.66 95.41 97.25 93.17 96.03 C 90.51 94.00 88.27 91.47 85.94 89.09 C 84.34 87.62 85.35 84.88 87.36 84.42 Z" />
<path fill="#f6a71c" opacity="1.00" d=" M 43.32 85.15 C 45.60 83.85 48.35 86.53 46.99 88.83 C 44.83 91.65 42.22 94.18 39.42 96.36 C 37.50 98.22 34.01 94.65 35.80 92.81 C 38.06 90.05 40.65 87.53 43.32 85.15 Z" />
<path fill="#f6a71c" opacity="1.00" d=" M 64.33 93.17 C 65.59 92.97 67.49 92.64 67.99 94.24 C 68.74 97.75 68.39 101.40 68.29 104.96 C 68.56 106.82 66.32 108.55 64.71 107.34 C 61.95 106.02 63.31 102.40 62.94 99.99 C 63.25 97.75 62.26 94.76 64.33 93.17 Z" />
</g>
</svg>
