<?xml version="1.0" encoding="UTF-8" ?>
<!DOCTYPE svg PUBLIC "-//W3C//DTD SVG 1.1//EN" "http://www.w3.org/Graphics/SVG/1.1/DTD/svg11.dtd">
<svg width="128pt" height="128pt" viewBox="0 0 128 128" version="1.1" xmlns="http://www.w3.org/2000/svg">
<g id="#f6a71cff">
<path fill="#f6a71c" opacity="1.00" d=" M 83.56 20.97 C 83.51 18.82 83.93 16.48 85.82 15.18 C 86.83 15.73 87.79 16.36 88.76 16.97 C 88.22 20.68 90.46 26.30 86.07 28.20 C 83.05 27.08 83.62 23.55 83.56 20.97 Z" />
<path fill="#f6a71c" opacity="1.00" d=" M 106.53 24.51 C 108.35 23.44 109.60 25.45 110.16 26.92 C 108.35 29.82 105.90 32.42 102.93 34.15 C 101.28 34.32 99.28 32.98 100.08 31.16 C 101.52 28.41 103.91 26.14 106.53 24.51 Z" />
<path fill="#f6a71c" opacity="1.00" d=" M 62.33 26.05 C 63.58 25.57 64.85 25.14 66.14 24.76 C 69.66 26.80 72.91 30.02 73.31 34.28 C 67.91 35.17 64.67 30.05 62.33 26.05 Z" />
<path fill="#f6a71c" opacity="1.00" d=" M 76.86 34.84 C 83.42 29.47 94.23 30.95 98.98 38.02 C 103.93 44.49 102.27 55.07 95.03 59.13 C 93.49 60.13 92.14 58.57 90.92 57.82 C 94.80 54.84 98.79 50.63 97.59 45.28 C 96.67 37.50 86.89 32.98 80.40 37.41 C 76.31 39.65 75.87 44.61 73.94 48.37 C 72.90 48.37 71.86 48.33 70.82 48.25 C 71.08 43.25 72.62 37.91 76.86 34.84 Z" />
<path fill="#f6a71c" opacity="1.00" d=" M 107.25 45.23 C 110.36 44.71 113.61 44.72 116.69 45.40 C 118.03 46.57 118.05 48.45 116.71 49.63 C 113.61 50.28 110.36 50.31 107.24 49.78 C 105.28 49.10 105.33 45.94 107.25 45.23 Z" />
<path fill="#f6a71c" opacity="1.00" d=" M 101.31 61.13 C 103.92 60.17 105.68 63.14 107.42 64.59 C 108.40 66.01 110.96 67.60 109.52 69.48 C 108.68 70.56 106.95 71.57 105.90 70.18 C 103.58 68.02 99.79 65.82 100.06 62.27 C 100.38 61.98 101.00 61.41 101.31 61.13 Z" />
</g>
<g id="#040707ff">
<path fill="#040707" opacity="1.00" d=" M 49.46 62.62 C 53.60 57.53 59.30 53.34 66.01 52.70 C 75.59 51.13 85.69 56.03 90.53 64.41 C 93.58 69.28 94.03 75.13 94.08 80.72 C 98.71 82.27 103.48 84.57 105.91 89.05 C 110.78 96.72 108.26 107.79 100.58 112.63 C 96.06 115.81 90.35 116.21 85.00 116.05 C 68.32 115.94 51.64 116.00 34.96 116.04 C 28.66 116.16 22.01 114.02 17.80 109.15 C 13.60 104.03 11.46 96.64 14.34 90.37 C 16.15 84.98 20.91 81.51 25.63 78.79 C 26.20 73.21 28.57 67.53 33.57 64.55 C 38.20 61.20 44.14 61.91 49.46 62.62 M 60.90 59.84 C 56.48 61.94 53.74 66.16 51.23 70.17 C 46.95 67.76 41.49 65.84 37.00 68.88 C 31.91 71.61 30.49 77.72 31.71 83.00 C 26.88 84.36 21.65 86.61 19.74 91.68 C 15.92 99.57 22.25 109.79 30.97 109.99 C 48.97 110.40 66.99 109.97 84.99 110.18 C 89.76 110.13 95.29 110.61 98.99 106.99 C 104.16 102.71 104.36 94.09 99.37 89.60 C 96.07 85.96 90.87 86.04 86.36 86.14 C 88.92 79.91 89.42 72.42 85.48 66.63 C 80.65 58.42 69.27 55.52 60.90 59.84 Z" />
</g>
</svg>
