<?xml version="1.0" encoding="UTF-8" ?>
<!DOCTYPE svg PUBLIC "-//W3C//DTD SVG 1.1//EN" "http://www.w3.org/Graphics/SVG/1.1/DTD/svg11.dtd">
<svg width="128pt" height="128pt" viewBox="0 0 128 128" version="1.1" xmlns="http://www.w3.org/2000/svg">
<g id="#72b8d4ff">
<path fill="#72b8d4" opacity="1.00" d=" M 85.47 19.52 C 88.83 17.32 92.87 16.68 96.79 16.28 C 96.21 22.00 95.47 28.67 99.74 33.26 C 104.04 38.55 111.17 39.49 117.53 39.98 C 116.60 47.35 111.79 53.80 105.09 56.95 C 104.17 55.80 103.24 54.65 102.31 53.50 C 105.65 51.32 108.71 48.73 111.03 45.46 C 105.52 43.73 99.63 41.80 95.95 37.03 C 92.18 32.94 91.43 27.26 90.64 21.98 C 87.69 23.82 84.64 25.81 82.85 28.90 C 80.55 32.47 80.48 36.86 80.32 40.96 C 78.83 40.86 77.33 40.77 75.83 40.68 C 74.14 32.51 78.48 23.84 85.47 19.52 Z" />
</g>
<g id="#000000ff">
<path fill="#000000" opacity="1.00" d=" M 58.57 52.58 C 64.09 47.82 71.80 46.15 78.92 47.13 C 88.54 48.48 97.08 55.54 100.24 64.72 C 101.59 68.90 101.66 73.33 102.07 77.67 C 105.37 79.37 108.88 80.82 111.76 83.23 C 116.43 87.44 118.76 94.21 117.34 100.38 C 115.49 109.15 107.03 115.91 98.04 115.61 C 79.70 115.68 61.35 115.54 43.00 115.64 C 38.81 115.64 34.59 115.85 30.43 115.25 C 22.82 114.14 16.22 108.16 14.22 100.76 C 12.49 94.64 13.71 87.67 17.70 82.68 C 20.11 79.69 23.76 78.10 26.34 75.31 C 28.27 71.49 28.68 66.91 31.61 63.62 C 34.95 59.83 39.83 57.03 45.01 57.23 C 47.57 57.21 50.12 57.72 52.68 57.45 C 54.90 56.16 56.59 54.18 58.57 52.58 M 64.89 54.83 C 60.59 57.23 58.01 61.59 55.09 65.39 C 49.79 63.22 43.20 61.22 38.19 65.19 C 33.29 68.30 33.12 74.54 32.69 79.71 C 28.81 81.60 24.26 83.01 21.76 86.80 C 17.92 92.19 18.51 100.14 23.11 104.89 C 26.05 108.28 30.59 109.67 34.96 109.63 C 54.99 109.66 75.02 109.53 95.05 109.68 C 99.30 109.72 104.02 109.39 107.26 106.27 C 112.74 101.76 113.29 92.76 108.39 87.62 C 104.98 83.38 99.17 83.39 94.23 82.88 C 95.02 78.97 96.08 75.06 95.91 71.04 C 95.42 63.75 90.63 56.99 84.01 53.96 C 78.00 51.06 70.62 51.45 64.89 54.83 Z" />
</g>
</svg>
