<?xml version="1.0" encoding="UTF-8" ?>
<!DOCTYPE svg PUBLIC "-//W3C//DTD SVG 1.1//EN" "http://www.w3.org/Graphics/SVG/1.1/DTD/svg11.dtd">
<svg width="128pt" height="128pt" viewBox="0 0 128 128" version="1.1" xmlns="http://www.w3.org/2000/svg">
<g id="#040707ff">
<path fill="#040707" opacity="1.00" d=" M 52.91 42.62 C 58.39 35.49 66.84 30.41 76.01 30.57 C 85.16 31.18 94.12 36.26 98.63 44.38 C 101.99 49.74 102.12 56.24 102.21 62.37 C 108.92 63.78 114.87 68.29 117.23 74.83 C 120.83 82.48 117.00 91.76 110.58 96.61 C 106.73 99.60 101.74 100.40 96.99 100.41 C 77.00 100.38 57.00 100.34 37.01 100.43 C 32.36 100.39 27.47 100.04 23.41 97.56 C 14.83 92.68 10.30 81.01 14.84 71.93 C 16.89 66.50 21.63 62.90 26.65 60.39 C 27.72 55.03 29.17 49.23 33.76 45.75 C 38.96 41.07 46.48 40.38 52.91 42.62 M 69.14 37.18 C 62.68 38.94 58.18 44.28 55.09 49.93 C 49.90 46.64 42.66 45.24 37.65 49.64 C 32.81 53.00 32.44 59.23 32.76 64.58 C 29.12 65.62 25.18 66.65 22.69 69.72 C 17.06 75.32 17.46 85.43 23.28 90.74 C 26.62 93.99 31.42 95.03 35.94 94.98 C 56.31 94.91 76.69 94.91 97.06 94.98 C 101.54 95.08 106.36 93.91 109.35 90.33 C 114.48 84.98 113.87 75.61 108.10 70.96 C 104.55 67.54 99.35 67.76 94.79 67.74 C 96.44 62.21 97.76 56.13 95.51 50.57 C 92.00 40.13 79.69 33.62 69.14 37.18 Z" />
</g>
</svg>
