<?xml version="1.0" encoding="UTF-8" ?>
<!DOCTYPE svg PUBLIC "-//W3C//DTD SVG 1.1//EN" "http://www.w3.org/Graphics/SVG/1.1/DTD/svg11.dtd">
<svg width="128pt" height="128pt" viewBox="0 0 128 128" version="1.1" xmlns="http://www.w3.org/2000/svg">
<g id="#040707ff">
<path fill="#040707" opacity="1.00" d=" M 71.03 16.87 C 82.64 14.76 95.00 21.55 99.80 32.27 C 102.20 37.08 102.02 42.57 102.14 47.81 C 106.47 49.41 111.13 51.12 113.99 54.98 C 116.57 58.45 118.53 62.62 118.67 67.01 C 118.20 75.74 111.70 84.23 102.82 85.66 C 97.63 86.26 92.35 86.22 87.14 85.86 C 84.58 85.98 84.07 81.91 86.30 81.09 C 93.09 79.48 100.93 82.56 107.01 78.11 C 113.93 73.66 114.87 62.78 108.72 57.27 C 105.14 53.43 99.61 53.41 94.76 53.65 C 95.65 49.83 96.84 46.00 96.74 42.03 C 96.23 33.48 90.09 25.62 81.93 23.03 C 74.93 20.62 66.84 22.46 61.29 27.26 C 58.62 29.63 56.87 32.79 55.01 35.80 C 51.91 34.15 48.65 32.25 45.00 32.56 C 40.06 32.71 35.44 36.05 33.61 40.61 C 32.50 43.76 32.78 47.15 32.68 50.43 C 27.74 51.34 22.84 53.81 20.47 58.45 C 16.28 65.59 19.60 75.53 26.99 79.04 C 32.72 82.14 39.50 79.35 45.42 81.38 C 45.81 82.61 46.15 83.85 46.46 85.10 C 40.90 86.63 35.02 86.27 29.36 85.55 C 19.65 83.68 12.43 73.92 13.06 64.14 C 13.80 57.11 18.08 50.69 24.37 47.42 C 27.35 46.18 27.35 42.75 28.20 40.10 C 29.80 33.84 35.34 29.02 41.53 27.54 C 45.31 26.58 49.20 27.42 52.95 28.11 C 57.63 22.62 63.69 17.92 71.03 16.87 Z" />
</g>
<g id="#2885c7ff">
<path fill="#2885c7" opacity="1.00" d=" M 54.14 80.29 C 55.99 80.49 57.63 81.77 57.04 83.82 C 55.51 87.17 53.28 90.24 50.61 92.78 C 48.51 93.57 46.04 91.41 47.27 89.25 C 48.92 85.88 51.08 82.55 54.14 80.29 Z" />
<path fill="#2885c7" opacity="1.00" d=" M 58.60 89.93 C 60.17 86.06 63.00 82.90 65.83 79.91 C 67.02 80.68 68.19 81.46 69.36 82.26 C 67.33 86.65 64.98 91.62 60.20 93.52 C 59.59 92.36 59.05 91.16 58.60 89.93 Z" />
<path fill="#2885c7" opacity="1.00" d=" M 70.17 90.04 C 71.87 85.99 74.84 82.63 78.02 79.67 C 78.93 80.93 81.12 82.04 80.31 83.88 C 78.79 87.29 76.55 90.46 73.73 92.91 C 71.89 93.51 70.42 91.69 70.17 90.04 Z" />
<path fill="#2885c7" opacity="1.00" d=" M 33.96 109.17 C 36.26 105.39 38.75 101.69 42.04 98.69 C 42.87 100.03 45.37 100.89 44.62 102.78 C 42.97 106.67 40.09 109.88 37.05 112.76 C 36.07 111.52 35.08 110.29 33.96 109.17 Z" />
<path fill="#2885c7" opacity="1.00" d=" M 53.27 98.89 C 54.45 99.86 56.30 100.40 56.59 102.10 C 55.02 106.27 51.85 109.55 48.90 112.78 C 47.95 111.54 46.12 110.83 46.00 109.10 C 47.57 105.17 50.56 102.06 53.27 98.89 Z" />
<path fill="#2885c7" opacity="1.00" d=" M 57.86 109.01 C 59.39 104.89 62.34 101.40 65.82 98.75 C 66.83 100.10 68.81 101.65 67.59 103.52 C 66.01 106.50 64.10 109.43 61.55 111.67 C 59.95 113.21 57.58 110.79 57.86 109.01 Z" />
</g>
</svg>
