<?xml version="1.0" encoding="UTF-8" ?>
<!DOCTYPE svg PUBLIC "-//W3C//DTD SVG 1.1//EN" "http://www.w3.org/Graphics/SVG/1.1/DTD/svg11.dtd">
<svg width="128pt" height="128pt" viewBox="0 0 128 128" version="1.1" xmlns="http://www.w3.org/2000/svg">
<g id="#040707ff">
<path fill="#040707" opacity="1.00" d=" M 56.84 20.81 C 61.48 15.78 68.36 13.41 75.02 12.80 C 85.19 13.08 95.25 19.05 99.56 28.42 C 102.13 33.40 102.04 39.13 102.17 44.59 C 108.45 46.12 114.34 50.00 116.84 56.17 C 121.69 65.27 115.97 77.01 106.99 80.97 C 100.16 83.81 92.54 82.44 85.36 82.41 C 85.35 80.76 85.34 79.10 85.35 77.45 C 91.11 76.82 96.96 77.63 102.68 76.66 C 108.66 75.19 113.22 69.20 112.94 63.03 C 112.77 57.93 109.31 53.29 104.76 51.16 C 101.63 49.81 98.14 50.07 94.82 49.87 C 96.39 44.54 97.73 38.73 95.69 33.32 C 93.21 25.63 86.07 19.62 78.00 18.75 C 72.41 18.06 66.55 19.60 62.17 23.18 C 59.15 25.58 57.14 28.95 55.06 32.14 C 51.87 30.73 48.64 28.86 45.03 29.02 C 39.99 29.33 35.23 32.81 33.52 37.58 C 32.59 40.52 32.79 43.65 32.69 46.70 C 27.58 48.19 22.08 50.64 20.00 55.95 C 15.92 64.11 21.33 74.93 30.20 76.74 C 35.35 77.49 40.58 76.94 45.75 77.40 C 45.72 79.07 45.69 80.75 45.64 82.44 C 38.63 82.56 31.12 83.69 24.58 80.50 C 17.59 77.19 13.22 69.60 12.97 62.00 C 13.19 57.50 14.85 53.09 17.58 49.52 C 19.94 46.43 23.42 44.55 26.69 42.60 C 27.54 39.03 28.21 35.31 30.19 32.15 C 32.67 28.23 36.70 25.27 41.21 24.16 C 45.04 23.24 48.92 24.38 52.77 24.38 C 54.39 23.55 55.52 22.03 56.84 20.81 Z" />
</g>
<g id="#2885c7ff">
<path fill="#2885c7" opacity="1.00" d=" M 67.45 70.44 C 68.35 68.97 70.32 69.54 71.74 69.23 C 72.37 73.89 69.86 78.02 68.13 82.15 C 64.73 90.08 61.38 98.05 57.99 105.99 C 55.97 110.62 54.54 115.66 51.09 119.50 C 50.11 118.55 49.10 117.64 48.22 116.60 C 48.27 114.60 49.18 112.77 49.89 110.94 C 54.47 100.44 58.90 89.89 63.36 79.34 C 64.67 76.35 65.68 73.20 67.45 70.44 Z" />
<path fill="#2885c7" opacity="1.00" d=" M 53.49 73.47 C 54.29 71.68 55.36 68.80 57.87 69.77 C 61.06 70.69 59.02 74.21 58.33 76.27 C 53.74 86.52 50.21 97.24 45.05 107.22 C 43.74 106.92 42.43 106.62 41.13 106.29 C 41.36 103.51 42.08 100.80 43.24 98.26 C 46.81 90.06 50.08 81.73 53.49 73.47 Z" />
<path fill="#2885c7" opacity="1.00" d=" M 79.34 69.54 C 81.01 69.98 82.67 70.45 84.32 70.94 C 81.47 79.57 77.51 87.79 74.22 96.26 C 72.61 99.96 71.57 104.07 68.82 107.14 C 67.33 106.77 66.05 105.90 64.74 105.14 C 69.43 93.20 74.46 81.40 79.34 69.54 Z" />
</g>
</svg>
