<?xml version="1.0" encoding="UTF-8" ?>
<!DOCTYPE svg PUBLIC "-//W3C//DTD SVG 1.1//EN" "http://www.w3.org/Graphics/SVG/1.1/DTD/svg11.dtd">
<svg width="128pt" height="128pt" viewBox="0 0 128 128" version="1.1" xmlns="http://www.w3.org/2000/svg">
<g id="#040707ff">
<path fill="#040707" opacity="1.00" d=" M 52.92 24.49 C 58.60 17.61 66.89 12.57 75.95 12.29 C 85.25 13.38 94.55 18.48 98.95 27.02 C 102.03 32.26 102.04 38.47 102.28 44.35 C 108.80 46.00 114.93 50.22 117.16 56.81 C 121.87 67.46 113.46 81.01 101.99 82.06 C 96.08 82.66 89.99 82.82 84.23 81.13 C 84.93 79.84 85.54 78.49 86.39 77.28 C 93.46 76.08 101.81 78.96 107.81 73.85 C 114.00 69.24 114.66 59.30 109.03 53.97 C 105.53 49.84 99.81 49.78 94.84 49.73 C 96.52 43.95 97.81 37.56 95.22 31.83 C 91.27 21.33 78.27 15.34 67.82 19.72 C 61.96 21.69 58.09 26.78 55.06 31.88 C 52.17 30.56 49.25 28.98 46.00 28.87 C 40.57 28.61 35.27 32.32 33.51 37.43 C 32.63 40.39 32.77 43.52 32.67 46.57 C 28.67 47.84 24.33 49.23 21.76 52.80 C 16.60 59.15 18.11 69.59 24.95 74.12 C 31.15 78.69 39.23 76.00 46.24 77.73 C 46.07 79.13 45.87 80.53 45.65 81.93 C 37.81 82.47 28.99 83.56 22.14 78.83 C 13.84 73.29 10.42 61.38 15.48 52.56 C 17.54 47.69 22.47 45.40 26.30 42.21 C 28.27 37.42 28.91 31.68 33.24 28.22 C 38.45 23.19 46.23 22.55 52.92 24.49 Z" />
</g>
<g id="#f6a71cff">
<path fill="#f6a71c" opacity="1.00" d=" M 66.69 67.69 C 68.40 65.27 69.96 62.71 72.08 60.62 C 73.63 60.86 75.09 61.50 76.57 61.99 C 72.99 69.61 67.16 75.85 62.72 82.96 C 67.90 83.02 73.07 82.98 78.24 83.02 C 71.30 94.51 64.51 106.11 57.33 117.45 C 55.69 120.89 51.04 116.90 53.15 114.34 C 57.90 105.41 63.79 97.13 68.58 88.22 C 63.18 88.26 57.79 88.31 52.39 88.20 C 57.00 81.26 61.98 74.57 66.69 67.69 Z" />
</g>
<g id="#2885c7ff">
<path fill="#2885c7" opacity="1.00" d=" M 30.17 89.08 C 30.85 89.07 32.19 89.03 32.86 89.02 C 33.49 89.77 34.11 90.53 34.75 91.29 C 32.71 96.24 30.37 101.06 27.76 105.73 C 27.12 105.83 25.84 106.04 25.20 106.14 C 24.69 105.56 23.67 104.40 23.16 103.82 C 25.15 98.75 27.50 93.83 30.17 89.08 Z" />
<path fill="#2885c7" opacity="1.00" d=" M 43.24 89.18 C 43.90 89.13 45.22 89.02 45.88 88.96 C 46.54 89.72 47.21 90.48 47.88 91.23 C 45.78 96.24 43.45 101.15 40.83 105.90 C 40.16 105.92 38.83 105.96 38.17 105.98 C 37.52 105.21 36.87 104.45 36.23 103.69 C 38.27 98.72 40.62 93.88 43.24 89.18 Z" />
<path fill="#2885c7" opacity="1.00" d=" M 84.18 89.25 C 84.98 89.12 86.57 88.86 87.37 88.73 C 87.77 90.18 88.91 91.72 88.09 93.23 C 86.37 97.58 84.03 101.65 81.91 105.82 C 81.10 105.91 79.47 106.10 78.66 106.20 C 78.40 104.62 77.51 103.00 78.24 101.42 C 79.86 97.20 82.13 93.27 84.18 89.25 Z" />
<path fill="#2885c7" opacity="1.00" d=" M 96.23 91.26 C 96.95 89.52 98.85 89.19 100.44 88.72 C 100.83 89.38 101.62 90.71 102.01 91.37 C 99.77 96.52 97.46 101.65 94.64 106.51 C 93.33 105.67 91.47 105.39 90.69 103.91 C 91.87 99.45 94.01 95.28 96.23 91.26 Z" />
</g>
</svg>
