<?xml version="1.0" encoding="UTF-8" ?>
<!DOCTYPE svg PUBLIC "-//W3C//DTD SVG 1.1//EN" "http://www.w3.org/Graphics/SVG/1.1/DTD/svg11.dtd">
<svg width="128pt" height="128pt" viewBox="0 0 128 128" version="1.1" xmlns="http://www.w3.org/2000/svg">
<g id="#040707ff">
<path fill="#040707" opacity="1.00" d=" M 62.96 15.96 C 68.21 13.54 74.21 11.07 80.01 12.98 C 88.29 15.11 96.08 20.32 99.61 28.34 C 102.33 33.25 101.67 38.99 102.39 44.35 C 105.01 45.45 107.81 46.22 110.22 47.76 C 115.11 51.22 118.18 57.04 118.51 63.00 C 118.51 71.56 112.32 79.98 103.81 81.77 C 98.92 82.62 93.92 82.50 88.98 82.29 C 87.45 82.31 86.02 81.77 84.78 80.91 C 85.06 79.62 84.94 78.00 86.34 77.31 C 93.42 76.00 101.82 79.05 107.81 73.84 C 114.24 69.09 114.62 58.67 108.53 53.50 C 105.05 49.66 99.64 49.89 94.91 49.76 C 95.90 45.13 97.52 40.35 96.35 35.59 C 94.85 27.75 88.61 21.15 80.92 19.06 C 74.92 17.26 68.25 18.67 63.15 22.19 C 59.51 24.51 57.49 28.46 55.01 31.84 C 51.79 30.57 48.62 28.51 45.02 28.87 C 39.90 29.05 35.22 32.67 33.46 37.42 C 32.68 40.39 32.87 43.51 32.62 46.55 C 28.71 48.02 24.23 49.10 21.77 52.82 C 16.01 59.74 18.63 71.42 26.79 75.24 C 32.75 78.79 40.19 75.21 46.15 78.18 C 45.99 79.35 45.84 80.53 45.69 81.71 C 40.27 82.85 34.62 82.59 29.17 81.79 C 19.70 80.02 12.71 70.54 13.03 61.05 C 13.43 56.41 15.31 51.88 18.35 48.33 C 20.57 45.74 23.92 44.58 26.41 42.30 C 27.90 38.98 28.05 35.14 30.07 32.03 C 33.10 27.11 38.58 23.92 44.29 23.38 C 47.18 23.32 50.01 24.05 52.86 24.42 C 56.18 21.55 58.85 17.80 62.96 15.96 Z" />
</g>
<g id="#f6a71cff">
<path fill="#f6a71c" opacity="1.00" d=" M 65.89 68.87 C 67.91 66.11 69.52 62.97 72.15 60.72 C 73.74 60.13 74.95 61.47 76.18 62.23 C 75.77 63.70 75.27 65.15 74.35 66.39 C 70.58 71.96 66.36 77.21 62.83 82.94 C 67.93 83.11 73.03 82.89 78.13 83.03 C 73.53 91.32 68.34 99.28 63.51 107.44 C 61.13 111.12 59.29 115.18 56.44 118.53 C 54.02 119.78 51.58 116.33 53.17 114.32 C 57.70 105.33 64.09 97.35 68.32 88.21 C 63.07 88.15 57.82 88.44 52.57 88.17 C 56.63 81.48 61.50 75.34 65.89 68.87 Z" />
</g>
<g id="#2885c7ff">
<path fill="#2885c7" opacity="1.00" d=" M 30.30 89.13 C 30.93 89.10 32.19 89.04 32.82 89.01 C 33.44 89.75 34.06 90.48 34.68 91.21 C 32.79 96.23 30.56 101.15 27.64 105.66 C 27.01 105.79 25.75 106.05 25.13 106.19 C 24.24 104.97 22.84 103.71 23.88 102.12 C 25.59 97.60 27.70 93.21 30.30 89.13 Z" />
<path fill="#2885c7" opacity="1.00" d=" M 43.37 89.24 C 43.98 89.17 45.22 89.03 45.84 88.96 C 46.49 89.70 47.14 90.44 47.79 91.18 C 45.87 96.27 43.59 101.25 40.69 105.86 C 40.07 105.89 38.81 105.95 38.19 105.98 C 37.56 105.24 36.94 104.51 36.31 103.78 C 38.14 98.70 40.48 93.80 43.37 89.24 Z" />
<path fill="#2885c7" opacity="1.00" d=" M 84.37 89.24 C 85.00 89.15 86.28 88.98 86.91 88.89 C 87.66 89.99 89.25 91.08 88.36 92.57 C 86.52 97.16 84.29 101.61 81.72 105.84 C 81.08 105.89 79.79 105.98 79.14 106.03 C 78.35 104.90 77.10 103.67 77.97 102.21 C 79.66 97.69 81.81 93.33 84.37 89.24 Z" />
<path fill="#2885c7" opacity="1.00" d=" M 97.02 89.98 C 97.66 88.63 99.48 89.38 100.64 89.15 C 100.94 89.67 101.55 90.72 101.85 91.24 C 100.10 96.42 97.66 101.38 94.76 106.01 C 93.14 106.04 91.22 105.73 90.74 103.89 C 91.99 98.94 94.45 94.35 97.02 89.98 Z" />
</g>
</svg>
