<?xml version="1.0" encoding="UTF-8" ?>
<!DOCTYPE svg PUBLIC "-//W3C//DTD SVG 1.1//EN" "http://www.w3.org/Graphics/SVG/1.1/DTD/svg11.dtd">
<svg width="128pt" height="128pt" viewBox="0 0 128 128" version="1.1" xmlns="http://www.w3.org/2000/svg">
<g id="#71b8d4ff">
<path fill="#71b8d4" opacity="1.00" d=" M 64.81 25.79 C 65.78 26.32 66.75 26.85 67.72 27.38 C 67.73 31.03 67.74 34.69 67.74 38.34 C 69.95 36.33 72.26 34.30 75.27 33.63 C 76.13 38.98 69.94 41.01 67.93 45.18 C 67.38 50.27 67.80 55.42 67.82 60.53 C 71.66 56.73 76.14 53.38 79.11 48.83 C 79.56 45.02 79.28 41.16 79.53 37.34 C 80.78 37.46 82.02 37.59 83.27 37.75 C 83.32 40.23 83.34 42.71 83.37 45.18 C 86.16 42.44 88.93 39.68 91.79 37.02 C 92.47 37.38 93.81 38.10 94.48 38.46 C 92.89 42.39 89.41 44.99 86.60 48.01 C 89.02 48.12 91.44 48.21 93.86 48.33 C 93.97 49.57 94.07 50.80 94.17 52.03 C 90.27 52.27 86.33 51.92 82.46 52.49 C 78.07 55.75 74.60 60.08 70.69 63.87 C 76.01 63.69 81.36 64.16 86.65 63.58 C 89.94 61.62 92.03 58.19 95.17 56.00 C 96.12 56.24 97.00 56.63 97.82 57.18 C 97.19 60.00 94.65 61.77 92.88 63.88 C 96.86 63.77 100.86 63.76 104.83 64.14 C 104.80 65.32 104.77 66.51 104.72 67.69 C 100.79 67.92 96.84 67.90 92.90 67.89 C 94.65 69.83 96.40 71.76 98.09 73.75 C 97.28 74.52 96.48 75.30 95.68 76.07 C 92.55 73.63 90.08 70.40 86.78 68.18 C 81.48 67.45 76.10 68.00 70.77 67.92 C 74.57 71.66 78.02 75.82 82.24 79.11 C 85.99 79.84 89.85 79.39 93.65 79.47 C 93.84 80.65 94.02 81.84 94.20 83.03 C 91.60 83.27 89.00 83.42 86.40 83.64 C 88.91 86.17 91.45 88.69 93.98 91.22 C 93.93 91.87 93.84 93.17 93.79 93.83 C 93.13 93.88 91.81 93.97 91.15 94.02 C 88.60 91.50 86.08 88.96 83.46 86.53 C 83.35 89.09 83.25 91.66 83.08 94.23 C 81.84 94.07 80.61 93.90 79.37 93.74 C 79.23 89.91 79.73 86.01 78.91 82.25 C 75.70 77.99 71.49 74.60 67.80 70.77 C 67.83 76.10 67.32 81.48 68.00 86.78 C 69.95 89.94 73.24 91.98 75.31 95.05 C 75.11 96.21 74.71 97.31 74.11 98.34 C 71.95 96.79 69.87 95.13 67.78 93.48 C 67.68 97.15 68.09 100.88 67.39 104.51 C 66.45 105.47 65.41 105.57 64.28 104.81 C 63.42 100.88 63.87 96.83 63.89 92.86 C 61.95 94.59 60.04 96.36 58.12 98.12 C 57.48 97.70 56.19 96.85 55.54 96.42 C 57.36 92.48 61.27 90.21 63.64 86.70 C 64.12 81.38 63.69 76.02 63.87 70.69 C 60.04 74.60 55.79 78.15 52.37 82.43 C 51.80 86.30 52.16 90.24 51.92 94.14 C 50.70 94.12 49.48 94.11 48.26 94.09 C 48.11 91.62 47.99 89.14 47.86 86.66 C 45.22 89.22 42.81 92.04 39.87 94.26 C 38.70 93.74 37.64 93.02 36.57 92.33 C 39.28 89.24 42.21 86.36 45.25 83.59 C 42.54 83.41 39.82 83.24 37.12 82.95 C 37.26 81.81 37.40 80.67 37.54 79.53 C 41.30 79.43 45.10 79.74 48.84 79.22 C 53.26 76.11 56.66 71.78 60.44 67.95 C 55.12 68.05 49.70 67.29 44.46 68.33 C 41.47 70.61 39.01 73.48 36.21 75.98 C 35.54 75.62 34.19 74.90 33.51 74.54 C 34.67 72.03 36.43 69.91 38.26 67.87 C 34.39 67.93 30.52 67.90 26.66 67.64 C 26.45 66.92 26.01 65.48 25.79 64.76 C 29.85 63.56 34.10 63.70 38.28 63.86 C 36.58 61.81 34.96 59.70 33.49 57.48 C 34.16 57.01 35.50 56.07 36.17 55.61 C 38.98 58.19 41.44 61.18 44.53 63.45 C 49.83 64.31 55.27 63.67 60.62 63.74 C 57.02 59.94 53.56 55.94 49.44 52.69 C 45.32 51.75 40.98 52.43 36.80 51.69 C 37.26 50.55 37.23 48.99 38.41 48.29 C 40.72 48.01 43.05 48.20 45.37 48.26 C 42.67 45.47 39.54 43.03 37.35 39.80 C 36.73 38.00 38.56 37.75 39.87 37.49 C 42.86 39.68 45.26 42.53 47.83 45.17 C 47.94 42.89 47.91 40.60 48.27 38.34 C 49.21 37.51 50.44 37.21 51.63 36.94 C 52.31 41.09 51.66 45.39 52.56 49.48 C 55.93 53.70 60.11 57.18 63.83 61.09 C 63.71 55.81 64.11 50.51 63.64 45.25 C 61.78 41.63 57.79 39.58 55.78 36.00 C 56.18 34.98 57.45 33.05 58.66 34.27 C 60.61 35.61 62.20 37.37 63.90 39.00 C 63.75 34.58 63.41 30.06 64.81 25.79 Z" />
</g>
</svg>
