<?xml version="1.0" encoding="UTF-8" ?>
<!DOCTYPE svg PUBLIC "-//W3C//DTD SVG 1.1//EN" "http://www.w3.org/Graphics/SVG/1.1/DTD/svg11.dtd">
<svg width="128pt" height="128pt" viewBox="0 0 128 128" version="1.1" xmlns="http://www.w3.org/2000/svg">
<g id="#040707ff">
<path fill="#040707" opacity="1.00" d=" M 36.96 44.89 C 45.22 42.05 54.09 44.64 61.57 48.47 C 67.58 51.62 72.86 56.80 79.98 57.19 C 89.23 58.49 97.84 54.34 105.87 50.36 C 106.33 50.59 107.24 51.05 107.70 51.28 C 107.76 51.88 107.88 53.08 107.94 53.68 C 98.45 59.87 86.59 63.22 75.35 60.58 C 69.99 59.31 65.59 55.84 60.98 53.02 C 54.17 48.97 45.78 46.74 37.98 48.97 C 33.79 49.93 30.30 52.52 26.51 54.39 C 25.09 55.26 23.95 53.56 22.81 52.99 C 26.19 48.54 31.85 46.63 36.96 44.89 Z" />
<path fill="#040707" opacity="1.00" d=" M 23.94 66.89 C 31.23 61.22 40.95 57.91 50.19 59.83 C 56.70 61.06 62.65 64.21 68.05 67.95 C 72.97 71.38 78.98 73.34 85.00 72.90 C 92.24 72.59 98.72 69.20 105.17 66.28 C 106.99 65.21 108.01 67.35 108.15 68.86 C 98.82 75.16 86.97 78.82 75.78 76.17 C 68.61 74.58 63.34 69.04 56.69 66.28 C 49.82 63.21 41.66 62.61 34.65 65.61 C 31.62 66.82 28.97 68.84 25.89 69.92 C 24.11 70.36 22.14 68.23 23.94 66.89 Z" />
<path fill="#040707" opacity="1.00" d=" M 22.84 83.23 C 29.53 77.68 38.29 74.16 47.07 75.00 C 55.46 75.42 62.87 79.84 69.67 84.39 C 76.22 88.81 84.71 89.19 92.15 87.13 C 97.00 85.93 101.29 83.31 105.84 81.33 C 106.31 81.56 107.26 82.02 107.74 82.25 C 107.75 82.85 107.79 84.05 107.81 84.65 C 101.25 88.96 93.65 91.53 85.93 92.77 C 78.38 93.53 70.86 90.59 64.77 86.28 C 57.10 80.99 47.32 77.22 37.99 79.93 C 33.55 80.94 29.91 83.75 25.89 85.69 C 24.43 85.59 23.62 84.29 22.84 83.23 Z" />
</g>
</svg>
