<?xml version="1.0" encoding="UTF-8" ?>
<!DOCTYPE svg PUBLIC "-//W3C//DTD SVG 1.1//EN" "http://www.w3.org/Graphics/SVG/1.1/DTD/svg11.dtd">
<svg width="128pt" height="128pt" viewBox="0 0 128 128" version="1.1" xmlns="http://www.w3.org/2000/svg">
<g id="#040707ff">
<path fill="#040707" opacity="1.00" d=" M 24.80 50.75 C 30.39 46.73 37.11 44.16 43.98 43.65 C 53.12 43.71 61.65 47.91 69.00 53.05 C 74.70 57.17 82.12 58.12 88.93 56.89 C 94.99 55.92 100.40 52.94 105.85 50.31 C 106.31 50.55 107.22 51.04 107.68 51.29 C 107.75 51.89 107.89 53.11 107.96 53.71 C 98.41 59.84 86.61 63.22 75.35 60.59 C 67.22 58.63 61.45 51.77 53.40 49.59 C 45.80 46.86 37.11 47.96 30.33 52.30 C 28.29 53.30 25.59 56.09 23.59 53.49 C 22.16 52.54 24.10 51.37 24.80 50.75 Z" />
<path fill="#040707" opacity="1.00" d=" M 23.92 66.89 C 31.03 61.42 40.37 58.07 49.39 59.68 C 55.94 60.80 62.01 63.77 67.43 67.55 C 71.96 70.78 77.37 72.91 82.99 72.95 C 90.93 73.11 98.18 69.57 105.16 66.25 C 107.03 65.20 107.92 67.43 108.22 68.87 C 98.82 75.07 87.02 78.85 75.78 76.18 C 68.60 74.60 63.35 69.03 56.69 66.27 C 50.04 63.32 42.21 62.64 35.35 65.32 C 32.02 66.49 29.21 68.75 25.90 69.95 C 24.13 70.42 22.19 68.19 23.92 66.89 Z" />
<path fill="#040707" opacity="1.00" d=" M 22.80 83.22 C 29.55 77.75 38.26 74.13 47.07 75.00 C 55.46 75.42 62.88 79.82 69.67 84.40 C 75.53 88.34 83.01 89.10 89.81 87.69 C 95.53 86.63 100.63 83.76 105.82 81.29 C 106.29 81.53 107.25 82.02 107.72 82.26 C 107.75 82.87 107.79 84.08 107.82 84.69 C 101.46 88.76 94.22 91.32 86.81 92.64 C 82.18 93.55 77.50 92.32 73.14 90.84 C 67.98 89.07 63.92 85.24 59.07 82.87 C 52.64 79.64 45.06 77.81 37.99 79.93 C 33.55 80.91 29.91 83.74 25.91 85.70 C 24.42 85.63 23.63 84.24 22.80 83.22 Z" />
</g>
</svg>
