<?xml version="1.0" encoding="UTF-8" ?>
<!DOCTYPE svg PUBLIC "-//W3C//DTD SVG 1.1//EN" "http://www.w3.org/Graphics/SVG/1.1/DTD/svg11.dtd">
<svg width="128pt" height="128pt" viewBox="0 0 128 128" version="1.1" xmlns="http://www.w3.org/2000/svg">
<g id="#040707ff">
<path fill="#040707" opacity="1.00" d=" M 70.93 30.81 C 82.62 28.56 95.03 35.50 99.83 46.27 C 102.16 51.07 102.01 56.53 102.17 61.74 C 106.53 63.34 111.17 65.11 114.06 68.96 C 116.96 72.86 119.15 77.75 118.52 82.70 C 117.43 89.20 113.40 95.44 107.24 98.16 C 101.24 100.99 94.44 100.38 88.00 100.40 C 71.00 100.36 53.99 100.36 36.99 100.42 C 31.46 100.44 25.73 99.17 21.30 95.71 C 14.40 90.51 10.89 80.56 14.48 72.44 C 16.15 67.24 20.49 63.71 24.92 60.86 C 27.37 59.51 27.34 56.44 28.22 54.10 C 29.62 48.37 34.36 43.86 39.83 41.90 C 44.07 40.37 48.63 41.26 52.94 41.93 C 57.63 36.51 63.68 31.92 70.93 30.81 M 55.05 49.63 C 49.80 46.26 42.45 44.91 37.42 49.42 C 32.71 52.85 32.59 59.04 32.64 64.31 C 28.75 65.38 24.57 66.66 22.05 70.03 C 17.22 75.67 17.67 84.84 22.98 90.01 C 26.02 93.33 30.61 94.53 34.98 94.42 C 56.00 94.36 77.01 94.36 98.03 94.42 C 102.36 94.56 106.96 93.18 109.68 89.62 C 114.42 84.25 113.73 75.33 108.26 70.73 C 104.67 67.25 99.41 67.24 94.74 67.45 C 95.93 62.90 97.38 58.16 96.43 53.42 C 94.57 42.75 83.81 34.58 73.00 36.04 C 64.89 36.65 58.62 42.72 55.05 49.63 Z" />
<path fill="#040707" opacity="1.00" d=" M 57.85 62.26 C 55.67 56.71 59.39 50.16 65.17 48.97 C 71.23 47.17 78.84 51.28 79.00 58.01 C 79.59 62.93 75.54 66.33 72.72 69.73 C 70.46 72.38 70.08 75.99 69.07 79.21 C 67.80 78.96 66.53 78.72 65.26 78.48 C 65.09 75.18 64.52 71.50 66.60 68.64 C 68.65 65.23 72.53 62.94 73.64 58.99 C 73.81 54.39 67.51 52.42 64.40 55.35 C 62.99 57.28 62.42 59.65 61.59 61.85 C 60.34 61.99 59.09 62.13 57.85 62.26 Z" />
<path fill="#040707" opacity="1.00" d=" M 67.20 82.49 C 70.04 82.11 72.84 85.55 71.25 88.17 C 69.88 91.45 63.88 90.62 63.93 86.92 C 63.67 84.88 65.11 82.75 67.20 82.49 Z" />
</g>
</svg>
