<?xml version="1.0" encoding="UTF-8" ?>
<!DOCTYPE svg PUBLIC "-//W3C//DTD SVG 1.1//EN" "http://www.w3.org/Graphics/SVG/1.1/DTD/svg11.dtd">
<svg width="128pt" height="128pt" viewBox="0 0 128 128" version="1.1" xmlns="http://www.w3.org/2000/svg">
<g id="#72b8d4ff">
<path fill="#72b8d4" opacity="1.00" d=" M 26.36 46.33 C 32.81 32.01 48.06 21.92 63.88 22.53 C 61.44 30.39 59.94 39.08 63.08 46.98 C 67.41 58.79 79.04 66.31 90.87 69.07 C 95.70 70.35 100.76 69.71 105.62 70.80 C 103.66 82.27 96.87 92.80 87.06 99.08 C 76.87 105.65 63.76 107.60 52.16 103.99 C 41.61 100.89 32.48 93.37 27.34 83.66 C 21.12 72.30 20.89 58.02 26.36 46.33 M 30.11 55.11 C 27.49 65.06 29.57 76.07 35.55 84.43 C 43.05 95.32 56.97 101.33 70.03 99.10 C 81.83 97.57 92.03 88.93 96.49 78.07 C 91.07 76.84 85.51 75.91 80.42 73.57 C 68.73 68.54 59.31 58.09 56.31 45.63 C 54.91 40.36 55.27 34.86 55.22 29.47 C 43.12 32.81 33.30 43.01 30.11 55.11 Z" />
</g>
</svg>
