<?xml version="1.0" encoding="UTF-8" ?>
<!DOCTYPE svg PUBLIC "-//W3C//DTD SVG 1.1//EN" "http://www.w3.org/Graphics/SVG/1.1/DTD/svg11.dtd">
<svg width="128pt" height="128pt" viewBox="0 0 128 128" version="1.1" xmlns="http://www.w3.org/2000/svg">
<g id="#f6a71cff">
<path fill="#f6a71c" opacity="1.00" d=" M 68.20 18.10 C 68.09 16.31 69.88 15.58 70.98 14.56 C 74.88 17.04 73.47 22.13 73.66 26.00 C 73.93 28.23 72.73 30.02 71.00 31.28 C 69.93 30.30 68.16 29.62 68.22 27.91 C 67.90 24.65 67.91 21.35 68.20 18.10 Z" />
<path fill="#f6a71c" opacity="1.00" d=" M 38.74 28.44 C 39.74 28.28 40.74 28.19 41.75 28.17 C 45.59 30.70 48.56 34.32 51.30 37.97 C 50.20 38.97 49.02 41.08 47.24 40.22 C 43.55 37.81 40.73 34.30 37.88 30.98 C 38.10 30.34 38.53 29.07 38.74 28.44 Z" />
<path fill="#f6a71c" opacity="1.00" d=" M 91.84 36.99 C 94.62 33.60 97.48 30.11 101.22 27.75 C 103.20 26.57 105.63 29.61 104.30 31.35 C 101.99 34.35 99.25 37.04 96.28 39.38 C 95.27 40.29 93.87 39.60 92.71 39.56 C 92.49 38.92 92.06 37.63 91.84 36.99 Z" />
<path fill="#f6a71c" opacity="1.00" d=" M 60.66 38.66 C 67.99 35.21 77.02 35.78 83.83 40.19 C 90.89 44.50 95.06 52.79 94.96 60.99 C 94.67 69.08 90.33 77.12 83.22 81.19 C 80.40 82.77 77.04 84.55 73.82 83.00 C 73.85 81.77 73.88 80.55 73.92 79.33 C 79.58 77.05 85.60 73.97 87.91 67.90 C 92.25 58.65 87.24 46.79 77.78 43.16 C 69.30 39.50 58.76 43.49 54.51 51.60 C 51.75 56.17 52.39 61.63 52.41 66.72 C 50.88 66.68 49.08 67.42 47.75 66.40 C 44.34 55.63 50.49 43.25 60.66 38.66 Z" />
<path fill="#f6a71c" opacity="1.00" d=" M 26.08 58.27 C 31.16 57.78 36.58 56.87 41.41 59.01 C 40.89 60.22 41.23 62.27 39.68 62.76 C 35.23 63.68 30.62 63.20 26.14 62.67 C 26.11 61.20 26.09 59.74 26.08 58.27 Z" />
<path fill="#f6a71c" opacity="1.00" d=" M 100.92 58.26 C 105.20 57.76 109.56 57.40 113.84 58.03 C 115.41 58.26 116.28 59.84 117.41 60.80 C 112.87 64.71 106.46 63.01 101.05 62.69 C 100.96 61.22 100.96 59.74 100.92 58.26 Z" />
<path fill="#f6a71c" opacity="1.00" d=" M 91.65 83.84 C 92.39 82.52 93.23 80.98 94.95 80.89 C 99.27 83.17 102.43 87.13 105.20 91.05 C 104.13 92.04 103.06 93.02 101.97 93.99 C 98.01 91.18 94.65 87.64 91.65 83.84 Z" />
</g>
<g id="#040707ff">
<path fill="#040707" opacity="1.00" d=" M 47.40 72.53 C 54.66 70.42 63.04 73.60 66.92 80.12 C 68.92 83.27 68.78 87.17 70.07 90.57 C 72.24 92.85 75.34 94.12 77.23 96.71 C 80.79 101.91 79.63 109.77 74.57 113.59 C 71.66 116.03 67.77 116.74 64.07 116.69 C 53.37 116.68 42.68 116.57 31.98 116.71 C 28.03 116.69 23.80 116.85 20.29 114.74 C 14.90 111.77 11.44 104.78 13.76 98.82 C 14.68 95.73 17.19 93.60 19.41 91.43 C 22.70 88.45 23.10 83.39 26.76 80.71 C 29.24 78.68 32.59 78.69 35.62 78.38 C 40.26 78.21 43.02 73.56 47.40 72.53 M 48.85 77.79 C 44.80 78.78 42.52 82.53 40.04 85.53 C 36.85 84.73 33.07 82.73 30.06 85.06 C 27.11 87.03 27.47 91.00 26.87 94.08 C 24.56 95.28 21.97 96.19 20.16 98.14 C 17.64 101.48 18.38 106.77 21.79 109.24 C 24.41 111.20 27.87 110.93 30.97 111.03 C 41.66 110.89 52.36 110.93 63.05 111.03 C 66.24 110.96 70.09 111.05 72.27 108.27 C 74.63 105.65 74.48 101.44 72.04 98.92 C 69.78 96.06 65.81 96.73 62.61 96.56 C 63.25 93.47 64.17 90.36 63.88 87.18 C 62.81 80.54 55.35 75.61 48.85 77.79 Z" />
</g>
</svg>
