<?xml version="1.0" encoding="UTF-8" ?>
<!DOCTYPE svg PUBLIC "-//W3C//DTD SVG 1.1//EN" "http://www.w3.org/Graphics/SVG/1.1/DTD/svg11.dtd">
<svg width="128pt" height="128pt" viewBox="0 0 128 128" version="1.1" xmlns="http://www.w3.org/2000/svg">
<g id="#72b8d4ff">
<path fill="#72b8d4" opacity="1.00" d=" M 72.68 17.68 C 76.87 15.74 81.50 14.80 86.11 14.90 C 85.19 20.59 83.81 26.55 85.83 32.19 C 88.20 40.12 95.52 45.43 103.10 47.88 C 107.52 49.44 112.26 49.20 116.87 49.54 C 116.80 62.97 104.89 74.64 91.92 76.52 C 91.11 74.85 90.51 73.09 90.17 71.28 C 94.57 69.58 99.40 68.32 102.72 64.73 C 104.83 62.39 107.60 59.95 107.82 56.62 C 98.60 55.13 89.55 50.75 84.19 42.84 C 79.68 36.91 78.59 29.34 78.71 22.09 C 70.14 25.19 63.22 32.89 61.76 41.98 C 61.11 45.68 61.90 49.41 62.15 53.11 C 60.28 53.96 58.17 54.38 56.12 54.06 C 52.01 40.05 59.31 23.67 72.68 17.68 Z" />
</g>
<g id="#000000ff">
<path fill="#000000" opacity="1.00" d=" M 48.79 65.79 C 53.13 61.83 59.29 60.38 65.03 61.00 C 73.01 61.81 80.15 67.61 82.87 75.13 C 84.01 78.40 83.79 81.95 84.70 85.28 C 87.72 87.20 91.37 88.42 93.43 91.54 C 98.13 97.43 97.24 106.67 91.72 111.73 C 88.48 115.20 83.63 116.49 79.01 116.39 C 63.67 116.38 48.34 116.31 33.01 116.41 C 28.00 116.59 22.67 115.62 18.93 112.04 C 11.11 105.38 11.80 91.20 20.70 85.79 C 25.72 83.20 24.72 76.33 29.05 73.05 C 32.64 69.36 37.93 68.59 42.83 69.16 C 45.42 69.63 46.95 67.11 48.79 65.79 M 56.63 68.71 C 52.05 70.24 49.87 74.79 46.95 78.23 C 43.13 76.78 38.73 73.69 34.85 76.83 C 30.47 79.24 31.07 84.49 31.19 88.71 C 28.28 90.26 24.59 90.68 22.46 93.42 C 19.16 97.48 19.64 103.99 23.64 107.41 C 26.37 110.08 30.43 110.02 33.98 110.06 C 48.67 109.95 63.36 110.01 78.05 110.04 C 81.25 110.01 84.90 109.75 87.15 107.16 C 90.58 103.70 90.33 97.52 86.64 94.34 C 83.63 91.47 79.16 92.33 75.40 91.81 C 76.54 87.17 78.47 82.24 76.47 77.53 C 73.85 69.68 64.23 65.45 56.63 68.71 Z" />
</g>
</svg>
