<?xml version="1.0" encoding="UTF-8" ?>
<!DOCTYPE svg PUBLIC "-//W3C//DTD SVG 1.1//EN" "http://www.w3.org/Graphics/SVG/1.1/DTD/svg11.dtd">
<svg width="128pt" height="128pt" viewBox="0 0 128 128" version="1.1" xmlns="http://www.w3.org/2000/svg">
<g id="#040707ff">
<path fill="#040707" opacity="1.00" d=" M 71.02 16.87 C 82.88 14.68 95.55 21.86 100.09 32.97 C 102.11 37.62 102.04 42.77 102.20 47.73 C 106.48 49.43 111.07 51.20 113.98 54.97 C 117.60 59.61 119.84 65.98 117.80 71.75 C 115.82 78.67 109.99 84.47 102.79 85.65 C 96.55 86.52 90.16 86.18 83.97 85.11 C 84.80 83.75 85.53 82.31 86.58 81.09 C 93.28 79.48 100.98 82.33 107.03 78.14 C 113.44 73.90 114.87 64.07 109.70 58.30 C 106.22 53.70 100.07 53.31 94.79 53.48 C 96.51 47.51 97.81 40.88 95.01 35.00 C 90.91 24.93 78.49 19.24 68.26 23.21 C 62.16 25.11 58.06 30.31 55.04 35.65 C 52.44 34.43 49.84 33.05 46.97 32.63 C 40.87 31.79 34.45 36.17 33.20 42.24 C 32.66 44.87 32.68 47.56 32.57 50.23 C 27.59 51.64 22.32 54.06 20.12 59.10 C 16.07 66.88 20.65 77.53 29.12 79.84 C 34.51 81.13 40.12 80.47 45.61 80.79 C 45.83 82.36 46.04 83.93 46.25 85.50 C 38.09 86.14 28.83 87.44 21.80 82.21 C 13.51 76.52 10.51 64.41 15.77 55.69 C 18.03 51.07 23.05 48.99 26.32 45.32 C 28.38 40.59 29.26 34.95 33.62 31.60 C 38.81 26.68 46.42 26.52 53.03 27.94 C 57.74 22.56 63.77 17.94 71.02 16.87 Z" />
</g>
<g id="#2885c7ff">
<path fill="#2885c7" opacity="1.00" d=" M 46.31 92.31 C 48.25 87.27 50.88 79.82 57.58 80.52 C 56.70 85.15 54.34 89.57 50.68 92.59 C 49.22 92.65 47.77 92.44 46.31 92.31 Z" />
<path fill="#2885c7" opacity="1.00" d=" M 59.32 88.38 C 61.02 85.25 63.37 82.55 65.64 79.83 C 66.94 80.71 68.25 81.60 69.55 82.49 C 67.20 86.86 64.53 91.35 60.09 93.90 C 59.73 92.10 58.11 90.16 59.32 88.38 Z" />
<path fill="#2885c7" opacity="1.00" d=" M 70.11 90.09 C 71.95 85.91 75.09 82.48 78.30 79.30 C 79.09 80.57 79.93 81.81 80.57 83.16 C 79.12 86.84 76.83 90.42 73.64 92.81 C 71.74 93.99 70.71 91.49 70.11 90.09 Z" />
<path fill="#2885c7" opacity="1.00" d=" M 34.48 108.94 C 36.12 104.82 39.26 101.53 42.25 98.35 C 43.13 99.61 44.09 100.83 44.79 102.20 C 43.21 106.49 39.92 109.87 36.82 113.13 C 36.00 111.75 35.08 110.43 34.48 108.94 Z" />
<path fill="#2885c7" opacity="1.00" d=" M 53.30 98.78 C 54.58 99.80 55.85 100.84 57.11 101.88 C 54.63 105.83 51.93 109.65 48.76 113.07 C 47.79 111.74 46.73 110.47 46.00 108.98 C 47.73 105.14 50.63 101.99 53.30 98.78 Z" />
<path fill="#2885c7" opacity="1.00" d=" M 58.19 108.22 C 59.76 104.56 62.58 101.64 65.22 98.73 C 66.35 99.69 67.48 100.65 68.61 101.61 C 66.44 105.72 63.75 109.55 60.63 113.00 C 59.39 111.76 57.34 110.23 58.19 108.22 Z" />
</g>
</svg>
