<?xml version="1.0" encoding="UTF-8" ?>
<!DOCTYPE svg PUBLIC "-//W3C//DTD SVG 1.1//EN" "http://www.w3.org/Graphics/SVG/1.1/DTD/svg11.dtd">
<svg width="128pt" height="128pt" viewBox="0 0 128 128" version="1.1" xmlns="http://www.w3.org/2000/svg">
<g id="#040707ff">
<path fill="#040707" opacity="1.00" d=" M 62.41 16.46 C 67.90 13.73 74.34 11.74 80.45 13.50 C 89.14 15.37 96.91 21.50 100.20 29.84 C 102.21 34.45 101.76 39.58 102.35 44.46 C 106.21 46.11 110.49 47.41 113.29 50.73 C 117.51 55.51 120.13 62.51 117.74 68.74 C 115.52 75.79 109.22 81.60 101.75 82.41 C 96.34 82.91 90.86 82.84 85.45 82.29 C 85.25 80.73 85.24 79.15 85.39 77.58 C 90.84 76.63 96.39 77.58 101.84 76.83 C 108.23 75.77 113.23 69.49 112.94 63.04 C 112.75 57.71 109.00 52.80 104.08 50.89 C 101.15 49.99 98.02 50.08 94.99 49.79 C 95.62 46.54 96.57 43.33 96.73 40.00 C 96.90 32.35 92.38 24.94 85.72 21.26 C 78.65 17.23 69.24 17.81 62.75 22.72 C 59.46 25.14 57.46 28.78 54.99 31.93 C 52.02 30.87 49.15 29.31 45.97 29.02 C 40.60 28.88 35.30 32.51 33.54 37.59 C 32.79 40.51 32.81 43.56 32.51 46.54 C 27.89 48.48 22.48 50.28 20.33 55.28 C 16.02 63.00 20.37 73.54 28.65 76.32 C 34.20 77.88 40.05 76.57 45.70 77.51 C 45.84 79.12 45.80 80.73 45.56 82.33 C 38.36 82.79 30.54 83.64 23.91 80.16 C 17.29 76.71 13.22 69.35 12.99 62.00 C 13.20 57.27 15.01 52.61 18.03 48.97 C 20.34 46.19 23.78 44.77 26.40 42.36 C 27.89 39.04 28.23 35.27 30.19 32.15 C 32.67 28.23 36.70 25.27 41.21 24.17 C 45.04 23.26 48.93 24.39 52.78 24.37 C 56.23 22.04 58.60 18.33 62.41 16.46 Z" />
</g>
<g id="#2885c7ff">
<path fill="#2885c7" opacity="1.00" d=" M 68.30 69.19 C 69.36 69.32 70.42 69.45 71.48 69.58 C 72.25 71.70 71.74 73.89 70.83 75.87 C 65.31 88.71 59.84 101.57 54.46 114.46 C 53.77 116.31 52.57 117.87 51.06 119.13 C 50.03 118.34 49.00 117.57 47.97 116.79 C 48.93 112.53 50.94 108.64 52.62 104.65 C 56.03 96.69 59.41 88.71 62.78 80.73 C 64.47 76.82 65.79 72.69 68.30 69.19 Z" />
<path fill="#2885c7" opacity="1.00" d=" M 54.52 71.41 C 55.38 68.76 58.46 69.51 59.89 71.19 C 57.66 79.32 53.62 86.81 50.68 94.70 C 48.90 98.93 47.53 103.40 44.86 107.18 C 43.74 106.91 42.62 106.64 41.50 106.37 C 40.65 103.26 42.50 100.38 43.55 97.56 C 47.40 88.92 50.54 79.98 54.52 71.41 Z" />
<path fill="#2885c7" opacity="1.00" d=" M 79.43 70.08 C 81.09 68.94 82.75 70.16 84.06 71.19 C 82.28 78.18 78.77 84.55 76.25 91.27 C 73.81 96.61 72.42 102.51 68.85 107.26 C 67.25 107.06 66.03 106.07 65.01 104.89 C 67.80 96.40 71.78 88.35 74.99 80.00 C 76.42 76.68 77.48 73.15 79.43 70.08 Z" />
</g>
</svg>
