<?xml version="1.0" encoding="UTF-8" ?>
<!DOCTYPE svg PUBLIC "-//W3C//DTD SVG 1.1//EN" "http://www.w3.org/Graphics/SVG/1.1/DTD/svg11.dtd">
<svg width="128pt" height="128pt" viewBox="0 0 128 128" version="1.1" xmlns="http://www.w3.org/2000/svg">
<g id="#71b8d4ff">
<path fill="#71b8d4" opacity="1.00" d=" M 64.76 25.76 C 65.75 26.30 66.75 26.84 67.74 27.39 C 67.74 31.04 67.74 34.69 67.71 38.34 C 69.97 36.33 72.35 34.35 75.33 33.54 C 76.06 38.93 69.99 41.01 67.94 45.21 C 67.38 50.30 67.82 55.45 67.81 60.57 C 71.63 56.74 76.14 53.40 79.09 48.82 C 79.57 45.02 79.29 41.16 79.53 37.33 C 80.78 37.45 82.03 37.58 83.28 37.72 C 83.33 40.22 83.34 42.72 83.36 45.22 C 86.15 42.46 88.91 39.69 91.77 37.02 C 92.47 37.40 93.87 38.16 94.57 38.54 C 92.71 42.32 89.48 45.07 86.59 48.02 C 89.01 48.12 91.44 48.21 93.87 48.33 C 93.98 49.57 94.08 50.81 94.18 52.05 C 90.28 52.26 86.34 51.90 82.48 52.50 C 78.05 55.73 74.61 60.10 70.67 63.88 C 75.98 63.68 81.34 64.20 86.63 63.56 C 89.95 61.49 92.37 58.31 95.20 55.67 C 96.21 56.41 97.21 57.15 98.21 57.90 C 96.46 59.92 94.65 61.89 92.86 63.88 C 96.78 63.81 100.70 63.80 104.62 64.04 C 104.77 64.87 105.07 66.54 105.22 67.37 C 101.13 67.99 96.99 67.95 92.87 67.89 C 94.63 69.83 96.40 71.76 98.11 73.75 C 97.29 74.52 96.47 75.30 95.65 76.08 C 92.57 73.60 90.08 70.39 86.76 68.21 C 81.47 67.44 76.08 68.01 70.74 67.91 C 74.57 71.64 78.00 75.84 82.25 79.11 C 86.00 79.86 89.86 79.40 93.66 79.49 C 93.85 80.67 94.03 81.86 94.21 83.05 C 91.60 83.27 88.98 83.42 86.37 83.61 C 88.90 86.17 91.45 88.69 93.99 91.23 C 93.94 91.88 93.84 93.17 93.78 93.82 C 93.13 93.87 91.81 93.98 91.15 94.03 C 88.59 91.51 86.06 88.96 83.46 86.48 C 83.35 89.06 83.26 91.65 83.10 94.24 C 81.86 94.07 80.61 93.91 79.38 93.74 C 79.23 89.92 79.75 86.02 78.88 82.27 C 75.71 77.97 71.45 74.61 67.79 70.74 C 67.85 76.07 67.31 81.46 68.02 86.76 C 69.95 89.94 73.23 92.00 75.32 95.07 C 75.01 96.20 74.64 97.32 74.22 98.42 C 72.00 96.84 69.89 95.13 67.77 93.43 C 67.67 97.11 68.12 100.86 67.37 104.50 C 66.45 105.51 65.43 105.62 64.30 104.81 C 63.42 100.88 63.88 96.82 63.89 92.83 C 61.96 94.58 60.05 96.36 58.13 98.14 C 57.47 97.69 56.13 96.79 55.47 96.34 C 57.53 92.58 61.22 90.15 63.63 86.68 C 64.14 81.36 63.70 76.00 63.87 70.67 C 60.06 74.61 55.77 78.13 52.39 82.45 C 51.79 86.32 52.12 90.26 51.91 94.16 C 50.69 94.14 49.48 94.13 48.27 94.10 C 48.11 91.62 47.99 89.14 47.86 86.65 C 45.24 89.20 42.86 92.04 39.89 94.21 C 38.72 93.71 37.62 93.05 36.52 92.42 C 39.23 89.28 42.20 86.37 45.25 83.56 C 42.54 83.40 39.83 83.25 37.12 82.98 C 37.25 81.83 37.39 80.69 37.53 79.54 C 42.09 78.97 47.78 81.09 51.31 77.33 C 54.49 74.33 57.47 71.12 60.47 67.94 C 55.15 68.06 49.72 67.29 44.48 68.35 C 41.47 70.58 39.01 73.47 36.24 75.98 C 35.54 75.60 34.14 74.83 33.44 74.45 C 34.76 72.05 36.47 69.92 38.25 67.86 C 34.40 67.91 30.54 67.91 26.70 67.67 C 26.46 66.93 26.00 65.44 25.76 64.70 C 29.86 63.67 34.10 63.70 38.30 63.86 C 36.63 61.79 34.97 59.72 33.48 57.52 C 34.15 57.04 35.50 56.08 36.17 55.60 C 38.96 58.20 41.42 61.20 44.54 63.43 C 49.85 64.34 55.30 63.67 60.67 63.74 C 57.00 59.99 53.58 55.92 49.42 52.71 C 45.58 51.53 41.33 52.93 37.51 51.51 C 36.07 50.26 37.23 49.14 38.42 48.33 C 40.72 47.99 43.06 48.18 45.38 48.21 C 42.59 45.48 39.58 42.92 37.20 39.81 C 37.70 38.64 38.72 37.81 39.52 36.86 C 42.36 39.54 45.10 42.33 47.80 45.15 C 48.11 42.44 47.53 39.36 49.20 37.00 C 50.49 37.19 52.09 37.41 51.91 39.11 C 52.46 42.54 51.61 46.12 52.57 49.46 C 55.91 53.71 60.12 57.18 63.83 61.09 C 63.72 55.82 64.13 50.52 63.64 45.25 C 61.91 41.87 58.28 39.92 56.26 36.71 C 55.76 35.55 56.06 34.62 57.15 33.91 C 60.08 34.39 61.77 37.19 63.90 38.99 C 63.71 34.57 63.55 30.07 64.76 25.76 Z" />
</g>
</svg>
